<svg xmlns="http://www.w3.org/2000/svg" width="19" height="20" viewBox="0 0 19 20" fill="none">
<path d="M12.0333 7.11488L8.11853 11.0388L6.61283 9.53312C6.53103 9.43757 6.43036 9.36001 6.31714 9.30526C6.20393 9.2505 6.08062 9.21966 5.95494 9.21482C5.82927 9.20999 5.70395 9.23116 5.58684 9.27706C5.46974 9.32287 5.36339 9.39249 5.27445 9.48138C5.18552 9.57035 5.11593 9.67675 5.07006 9.79383C5.02417 9.91091 5.003 10.0362 5.00786 10.162C5.01271 10.2876 5.04349 10.4109 5.09826 10.5241C5.15303 10.6373 5.23062 10.738 5.32614 10.8198L7.47062 12.9734C7.55589 13.058 7.65702 13.1249 7.7682 13.1703C7.87935 13.2157 7.99844 13.2388 8.11853 13.238C8.35789 13.237 8.5873 13.142 8.75731 12.9734L13.32 8.41069C13.4055 8.32582 13.4734 8.22489 13.5198 8.11373C13.5661 8.00253 13.59 7.88325 13.59 7.76278C13.59 7.64232 13.5661 7.52304 13.5198 7.41184C13.4734 7.30063 13.4055 7.19971 13.32 7.11488C13.149 6.94491 12.9178 6.84952 12.6767 6.84952C12.4356 6.84952 12.2044 6.94491 12.0333 7.11488ZM9.55122 0.918701C7.74639 0.918701 5.98207 1.4539 4.4814 2.45661C2.98073 3.45933 1.81111 4.88453 1.12042 6.55199C0.429733 8.21942 0.249022 10.0543 0.601127 11.8244C0.953233 13.5946 1.82235 15.2205 3.09857 16.4968C4.37478 17.773 6.00078 18.6421 7.77094 18.9943C9.54109 19.3463 11.3759 19.1657 13.0433 18.475C14.7108 17.7843 16.136 16.6146 17.1388 15.114C18.1415 13.6133 18.6767 11.849 18.6767 10.0441C18.6767 8.84579 18.4406 7.65914 17.982 6.55199C17.5235 5.44484 16.8513 4.43886 16.0039 3.59148C15.1565 2.74411 14.1505 2.07193 13.0433 1.61333C11.9362 1.15474 10.7496 0.918701 9.55122 0.918701ZM9.55122 17.3445C8.1074 17.3445 6.69591 16.9163 5.49537 16.1142C4.29483 15.312 3.35913 14.1719 2.80658 12.8379C2.25404 11.5039 2.10946 10.036 2.39115 8.61993C2.67283 7.20378 3.36813 5.90299 4.3891 4.88202C5.41007 3.86104 6.71087 3.16575 8.12702 2.88407C9.5431 2.60238 11.011 2.74695 12.345 3.29949C13.6789 3.85205 14.8191 4.78774 15.6213 5.98829C16.4234 7.18882 16.8516 8.60022 16.8516 10.0441C16.8516 11.9803 16.0825 13.8372 14.7134 15.2063C13.3443 16.5753 11.4874 17.3445 9.55122 17.3445Z" fill="#EEEEF0"/>
</svg>